G04 #@! TF.GenerationSoftware,KiCad,Pcbnew,5.1.5+dfsg1-2build2*
G04 #@! TF.CreationDate,2022-06-06T17:05:41+01:00*
G04 #@! TF.ProjectId,rampack-battery-1,72616d70-6163-46b2-9d62-617474657279,rev?*
G04 #@! TF.SameCoordinates,Original*
G04 #@! TF.FileFunction,Legend,Top*
G04 #@! TF.FilePolarity,Positive*
%FSLAX46Y46*%
G04 Gerber Fmt 4.6, Leading zero omitted, Abs format (unit mm)*
G04 Created by KiCad (PCBNEW 5.1.5+dfsg1-2build2) date 2022-06-06 17:05:41*
%MOMM*%
%LPD*%
G04 APERTURE LIST*
%ADD10C,0.120000*%
%ADD11C,0.150000*%
G04 APERTURE END LIST*
D10*
X4000000Y17500000D02*
X4000000Y24500000D01*
X-4500000Y17500000D02*
X4000000Y17500000D01*
X865021Y13118832D02*
G75*
G02X-16862910Y13115000I-8865021J4881168D01*
G01*
X-16862910Y22885000D02*
G75*
G02X862910Y22885000I8862910J-4885000D01*
G01*
X2470000Y13115000D02*
X862910Y13115000D01*
X-18470000Y13115000D02*
X-16862910Y13115000D01*
X2470000Y22885000D02*
X862910Y22885000D01*
X2470000Y15000000D02*
X2470000Y13115000D01*
X-18470000Y15000000D02*
X-18470000Y13115000D01*
X2470000Y21000000D02*
X2470000Y22885000D01*
X-18470000Y21000000D02*
X-18470000Y22885000D01*
X-18470000Y22885000D02*
X-16862910Y22885000D01*
X-5830000Y18830000D02*
X-4500000Y18830000D01*
X-5830000Y17500000D02*
X-5830000Y18830000D01*
X-5830000Y16230000D02*
X-3170000Y16230000D01*
X-3170000Y16230000D02*
X-3170000Y16170000D01*
X-5830000Y16230000D02*
X-5830000Y16170000D01*
X-5830000Y16170000D02*
X-3170000Y16170000D01*
X2670000Y25830000D02*
X4000000Y25830000D01*
X2670000Y24500000D02*
X2670000Y25830000D01*
X2670000Y23230000D02*
X5330000Y23230000D01*
X5330000Y23230000D02*
X5330000Y23170000D01*
X2670000Y23230000D02*
X2670000Y23170000D01*
X2670000Y23170000D02*
X5330000Y23170000D01*
D11*
X1214285Y12071428D02*
X1357142Y12023809D01*
X1404761Y11976190D01*
X1452380Y11880952D01*
X1452380Y11738095D01*
X1404761Y11642857D01*
X1357142Y11595238D01*
X1261904Y11547619D01*
X880952Y11547619D01*
X880952Y12547619D01*
X1214285Y12547619D01*
X1309523Y12500000D01*
X1357142Y12452380D01*
X1404761Y12357142D01*
X1404761Y12261904D01*
X1357142Y12166666D01*
X1309523Y12119047D01*
X1214285Y12071428D01*
X880952Y12071428D01*
X1738095Y12547619D02*
X2309523Y12547619D01*
X2023809Y11547619D02*
X2023809Y12547619D01*
X3166666Y11547619D02*
X2595238Y11547619D01*
X2880952Y11547619D02*
X2880952Y12547619D01*
X2785714Y12404761D01*
X2690476Y12309523D01*
X2595238Y12261904D01*
X-17833333Y11547619D02*
X-17833333Y10833333D01*
X-17880952Y10690476D01*
X-17976190Y10595238D01*
X-18119047Y10547619D01*
X-18214285Y10547619D01*
X-17404761Y11452380D02*
X-17357142Y11500000D01*
X-17261904Y11547619D01*
X-17023809Y11547619D01*
X-16928571Y11500000D01*
X-16880952Y11452380D01*
X-16833333Y11357142D01*
X-16833333Y11261904D01*
X-16880952Y11119047D01*
X-17452380Y10547619D01*
X-16833333Y10547619D01*
X1166666Y25047619D02*
X1166666Y24333333D01*
X1119047Y24190476D01*
X1023809Y24095238D01*
X880952Y24047619D01*
X785714Y24047619D01*
X2166666Y24047619D02*
X1595238Y24047619D01*
X1880952Y24047619D02*
X1880952Y25047619D01*
X1785714Y24904761D01*
X1690476Y24809523D01*
X1595238Y24761904D01*
M02*
